<svg id="Layer_1" enable-background="new 0 0 506.1 506.1" height="512" viewBox="0 0 506.1 506.1" width="512" xmlns="http://www.w3.org/2000/svg"><path d="m489.609 0h-473.118c-9.108 0-16.491 7.383-16.491 16.491v473.118c0 9.107 7.383 16.491 16.491 16.491h473.118c9.107 0 16.491-7.383 16.491-16.491v-473.118c0-9.108-7.384-16.491-16.491-16.491z" fill="#a2d0f9"/><path d="m306.827 146.374c-92.334-43.662-223.152-8.999-306.827 22.372v320.863c0 9.107 7.383 16.491 16.491 16.491h473.118c9.107 0 16.491-7.383 16.491-16.491v-346.085c-49.714 23.302-121.26 39.74-199.273 2.85z" fill="#8bc4ff"/><path d="m506.1 489.609v-164.022c-27.896-15.857-243.388-119.388-413.146-8.53-35.35 23.084-66.199 37.495-92.954 45.755v126.797c0 9.107 7.383 16.491 16.491 16.491h473.118c9.107 0 16.491-7.384 16.491-16.491z" fill="#80b9ed"/><g fill="#2e58ff"><path d="m489.609 506.1h-473.118c-9.108 0-16.491-7.384-16.491-16.491v-473.118c0-9.108 7.383-16.491 16.491-16.491h473.119c9.107 0 16.49 7.383 16.49 16.491v473.118c0 9.107-7.383 16.491-16.491 16.491zm-456.628-32.982h440.138v-440.137h-440.138z"/><path d="m137.482 447.648c8.837 0 16-7.164 16-16s-7.163-16-16-16c-24.299 0-44.067-19.769-44.067-44.067v-237.062c0-24.299 19.769-44.067 44.067-44.067 8.837 0 16-7.164 16-16s-7.163-16-16-16c-41.943 0-76.067 34.124-76.067 76.067v237.062c0 41.943 34.124 76.067 76.067 76.067z"/><path d="m368.617 90.452c24.299 0 44.067 19.769 44.067 44.067v237.062c0 24.299-19.769 44.067-44.067 44.067-8.837 0-16 7.164-16 16s7.163 16 16 16c41.943 0 76.067-34.124 76.067-76.067v-237.062c0-41.944-34.124-76.067-76.067-76.067-8.837 0-16 7.164-16 16s7.163 16 16 16z"/><path d="m171.563 192.103c8.837 0 16-7.164 16-16v-59.673c0-8.836-7.163-16-16-16s-16 7.164-16 16v59.673c0 8.836 7.164 16 16 16z"/><path d="m247.199 223.824v59.674c0 8.836 7.163 16 16 16s16-7.164 16-16v-59.674c0-8.836-7.163-16-16-16s-16 7.164-16 16z"/><path d="m341.835 299.498c8.837 0 16-7.164 16-16v-59.674c0-8.836-7.163-16-16-16s-16 7.164-16 16v59.674c0 8.836 7.163 16 16 16z"/><path d="m341.835 405.67c8.837 0 16-7.164 16-16v-59.673c0-8.836-7.163-16-16-16s-16 7.164-16 16v59.673c0 8.836 7.163 16 16 16z"/><path d="m341.835 192.103c8.837 0 16-7.164 16-16v-59.673c0-8.836-7.163-16-16-16s-16 7.164-16 16v59.673c0 8.836 7.163 16 16 16z"/><path d="m263.199 192.103c20.016 0 36.299-16.284 36.299-36.299v-19.076c0-20.015-16.283-36.299-36.299-36.299s-36.299 16.284-36.299 36.3v19.076c0 20.014 16.284 36.298 36.299 36.298zm-4.299-55.374c0-2.371 1.929-4.299 4.299-4.299s4.299 1.928 4.299 4.299v19.076c0 2.371-1.929 4.299-4.299 4.299s-4.299-1.928-4.299-4.299z"/><path d="m171.563 313.997c-20.016 0-36.299 16.284-36.299 36.299v19.076c0 20.015 16.283 36.299 36.299 36.299s36.299-16.284 36.299-36.299v-19.076c0-20.016-16.283-36.299-36.299-36.299zm4.299 55.374c0 2.371-1.929 4.299-4.299 4.299s-4.299-1.928-4.299-4.299v-19.076c0-2.371 1.929-4.299 4.299-4.299s4.299 1.928 4.299 4.299z"/><path d="m263.199 405.67c20.016 0 36.299-16.284 36.299-36.299v-19.076c0-20.015-16.283-36.299-36.299-36.299s-36.299 16.284-36.299 36.299v19.076c0 20.015 16.284 36.299 36.299 36.299zm-4.299-55.375c0-2.371 1.929-4.299 4.299-4.299s4.299 1.928 4.299 4.299v19.076c0 2.371-1.929 4.299-4.299 4.299s-4.299-1.928-4.299-4.299z"/><path d="m135.265 244.123v19.076c0 20.015 16.283 36.299 36.299 36.299s36.299-16.284 36.299-36.299v-19.076c0-20.015-16.283-36.299-36.299-36.299s-36.299 16.284-36.299 36.299zm40.597 0v19.076c0 2.371-1.929 4.299-4.299 4.299s-4.299-1.928-4.299-4.299v-19.076c0-2.371 1.929-4.299 4.299-4.299s4.299 1.928 4.299 4.299z"/></g></svg>