<?xml version="1.0"?>
<svg xmlns="http://www.w3.org/2000/svg" xmlns:xlink="http://www.w3.org/1999/xlink" version="1.1" id="Capa_1" x="0px" y="0px" viewBox="0 0 480 480" style="enable-background:new 0 0 480 480;" xml:space="preserve" width="512px" height="512px"><g><g>
	<g>
		<path d="M360,0H120C89.087,0.035,64.035,25.087,64,56v368c0.035,30.913,25.087,55.965,56,56h240c30.913-0.035,55.965-25.087,56-56    V56C415.965,25.087,390.913,0.035,360,0z M120,16h240c19.001,0.024,35.373,13.389,39.2,32H80.8    C84.627,29.389,100.999,16.024,120,16z M400,424c-0.026,22.08-17.92,39.974-40,40H120c-22.08-0.026-39.974-17.92-40-40v-24h320    V424z M400,384H80V64h320V384z" data-original="#000000" class="active-path" fill="#000000"/>
	</g>
</g><g>
	<g>
		<path d="M256,408h-32c-4.418,0-8,3.582-8,8v32c0,4.418,3.582,8,8,8h32c4.418,0,8-3.582,8-8v-32C264,411.582,260.418,408,256,408z     M248,440h-16v-16h16V440z" data-original="#000000" class="active-path" fill="#000000"/>
	</g>
</g></g> </svg>
